<?xml version="1.0" encoding="iso-8859-1"?>
<!-- Generator: Adobe Illustrator 19.0.0, SVG Export Plug-In . SVG Version: 6.00 Build 0)  -->
<svg version="1.1" id="Layer_1" xmlns="http://www.w3.org/2000/svg" xmlns:xlink="http://www.w3.org/1999/xlink" x="0px" y="0px"
	 viewBox="0 0 512 512" style="enable-background:new 0 0 512 512;" xml:space="preserve">
<g>
	<g>
		<g>
			<path d="M44.267,256h423.467c3.691,0,7.125-1.92,9.067-5.056c1.941-3.136,2.133-7.061,0.469-10.368L401.195,88.341
				c-0.192-0.405-0.427-0.789-0.683-1.152C393.216,73.045,378.517,64,362.667,64H149.333c-15.829,0-30.507,9.045-37.803,23.104
				c-0.277,0.405-0.512,0.832-0.725,1.237L34.731,240.576c-1.664,3.307-1.472,7.232,0.469,10.368
				C37.141,254.059,40.576,256,44.267,256z"/>
			<path d="M469.333,277.333H42.667C19.136,277.333,0,296.469,0,320v85.333C0,428.864,19.136,448,42.667,448h426.667
				C492.864,448,512,428.864,512,405.333V320C512,296.448,492.864,277.333,469.333,277.333z M128,320
				c11.755,0,21.333,9.579,21.333,21.333c0,11.755-9.579,21.333-21.333,21.333c-11.755,0-21.333-9.579-21.333-21.333
				C106.667,329.579,116.245,320,128,320z M64,320c11.755,0,21.333,9.579,21.333,21.333c0,11.755-9.579,21.333-21.333,21.333
				c-11.755,0-21.333-9.579-21.333-21.333C42.667,329.579,52.245,320,64,320z M458.667,405.333H53.333
				c-5.888,0-10.667-4.779-10.667-10.667S47.445,384,53.333,384h405.333c5.888,0,10.667,4.779,10.667,10.667
				S464.555,405.333,458.667,405.333z"/>
		</g>
	</g>
</g>
<g>
</g>
<g>
</g>
<g>
</g>
<g>
</g>
<g>
</g>
<g>
</g>
<g>
</g>
<g>
</g>
<g>
</g>
<g>
</g>
<g>
</g>
<g>
</g>
<g>
</g>
<g>
</g>
<g>
</g>
</svg>
