<?xml version="1.0" encoding="utf-8"?>
<!-- Generator: Adobe Illustrator 25.2.3, SVG Export Plug-In . SVG Version: 6.00 Build 0)  -->
<svg version="1.1" id="Layer_2_1_" xmlns="http://www.w3.org/2000/svg" xmlns:xlink="http://www.w3.org/1999/xlink" x="0px" y="0px"
	 viewBox="0 0 1548.6 517.2" style="enable-background:new 0 0 1548.6 517.2;" xml:space="preserve">
<style type="text/css">
	.st0{fill:#2274A5;}
	.st1{fill:#E9F1F7;}
	.st2{font-family:'Abolition-Regular';}
	.st3{font-size:450px;}
	.st4{letter-spacing:9;}
</style>
<polygon class="st0" points="0,121 188.4,0 188.4,499.3 0,453.3 "/>
<polygon class="st0" points="216.2,0 216.4,499.3 397.4,477.8 397.4,56.7 "/>
<path class="st1" d="M39,157l74.8-48.1l28,9.6v154.6l-28,30.7L68,309v113.7l-29-7.1V157z M98.9,264.5v-105l-7.8-3.9L68,168.3V279
	l23.1-4.7L98.9,264.5z"/>
<path class="st1" d="M248.5,98.2l31.3-19.8l68.4,21.4l24.7,33.1v72.3l-40.2-7.3v-58.4l-8.9-11.3l-16.6-4.4l-9.5,6.8l0,259.7l9.5,8.6
	l16.6-1.2l8.9-9.5v-57.9l40.2,0.5v72.6l-24.6,28.3l-68.4,8.1l-31.3-25.8L248.5,98.2z"/>
<text transform="matrix(1 0 0 1 432.99 442.04)" class="st0 st2 st3 st4">BUILDER</text>
</svg>
