<svg id="Layer_2" data-name="Layer 2" xmlns="http://www.w3.org/2000/svg" viewBox="0 0 1548.63 517.2"><defs><style>.cls-1,.cls-3{fill:#2274a5;}.cls-2{fill:#e9f1f7;}.cls-3{font-size:450px;font-family:Abolition-Regular, Abolition;letter-spacing:0.02em;}</style></defs><polygon class="cls-1" points="0 121 188.39 0 188.41 499.33 0 453.26 0 121"/><polygon class="cls-1" points="216.22 0 216.36 499.33 397.4 477.78 397.4 56.68 216.22 0"/><path class="cls-2" d="M39,157l74.83-48.07,28,9.64V273.19l-28,30.7L68,309V422.68L39,415.6ZM98.86,264.53v-105l-7.8-3.92L68,168.29V279l23.11-4.7Z"/><path class="cls-2" d="M248.48,98.17l31.34-19.81,68.43,21.41,24.66,33.08v72.29l-40.24-7.3V139.46l-8.94-11.3-16.61-4.44-9.54,6.76.05,259.68,9.53,8.61,16.6-1.2,8.94-9.55V330.13l40.23.51v72.65l-24.64,28.27L279.9,439.7l-31.33-25.84Z"/><text class="cls-3" transform="translate(432.99 442.04)">BUILDER</text></svg>