<svg id="Layer_1" height="512" viewBox="0 0 75 75" width="512" xmlns="http://www.w3.org/2000/svg" data-name="Layer 1"><path d="m59.88 24.1v33.87a4.285 4.285 0 0 1 -4.28 4.28h-.94v-20.11a2.051 2.051 0 0 0 -2.05-2.04h-30.21a2.051 2.051 0 0 0 -2.05 2.04v20.11h-.95a4.285 4.285 0 0 1 -4.28-4.28v-40.94a4.285 4.285 0 0 1 4.28-4.28h.26a2.123 2.123 0 0 0 -.14.75v14.27a2.053 2.053 0 0 0 2.05 2.05h26.88a2.053 2.053 0 0 0 2.05-2.05v-14.27a2.635 2.635 0 0 0 -.02-.28 4.069 4.069 0 0 1 1.08.78l7.07 7.07a4.241 4.241 0 0 1 1.25 3.03z"/><path d="m52.61 41.4h-30.21a.741.741 0 0 0 -.75.74v19.36a.749.749 0 0 0 .75.75h30.21a.755.755 0 0 0 .75-.75v-19.36a.747.747 0 0 0 -.75-.74zm-4.51 16.255h-21.193a.75.75 0 1 1 0-1.5h21.193a.75.75 0 0 1 0 1.5zm0-5.084h-21.193a.75.75 0 1 1 0-1.5h21.193a.75.75 0 0 1 0 1.5zm0-5.083h-21.193a.75.75 0 1 1 0-1.5h21.193a.75.75 0 0 1 0 1.5z"/><path d="m48.45 12.75h-26.88a.749.749 0 0 0 -.75.75v14.27a.755.755 0 0 0 .75.75h26.88a.755.755 0 0 0 .75-.75v-14.27a.749.749 0 0 0 -.75-.75zm-3.524 9.687a.75.75 0 0 1 -1.5 0v-4.337a.75.75 0 0 1 1.5 0z"/></svg>